<svg version="1.1" xmlns="http://www.w3.org/2000/svg" xmlns:xlink="http://www.w3.org/1999/xlink" x="0px" y="0px" width="413.453px" height="315.859px" viewBox="0 0 413.453 315.859" enable-background="new 0 0 413.453 315.859" xml:space="preserve">
	<g>
		<g>
			<g>
				<path fill="#2a2a2a" d="M108.213,313.214c-0.015,0.078-0.024,0.193-0.022,0.193S108.199,313.357,108.213,313.214L108.213,313.214z"></path>
			</g>
			<g>
				<path fill="#2a2a2a" d="M236.095,297.626c6.209,0.508,8.593,6.514,9.506,11.233H115.636c0.464-3.237,1.379-5.921,2.686-7.847c1.442-2.126,3.244-3.175,5.822-3.383L236.095,297.626 M236.343,290.626l-112.447,0.004c-10.368,0.658-14.776,9.822-15.499,20.174c-0.101,1.441-0.157,2.119-0.185,2.41c0.007-0.039,0.016-0.068,0.025-0.068c0.037,0,0.083,0.476,0.083,2.714c51.211,0,93.49,0,144.842,0c0-4.122-0.016-3.491-0.268-5.609C251.685,300.073,246.58,291.269,236.343,290.626L236.343,290.626z"></path>
			</g>
		</g>
		<g>
			<path fill="#2a2a2a" d="M27.203,268.823c-13.632,0-24.677-9.382-26.859-22.813c-0.268-1.656-0.292-3.275-0.292-4.792c-0.003-21.249-0.001-42.498,0-63.746C0.056,128.357,0.06,77.57,0,27.621C-0.019,12.454,10.557,3.072,20.391,0.773c2.109-0.493,4.313-0.744,6.553-0.745c102.496-0.031,204.989-0.034,307.484-0.021c13.365,0.001,24.287,9.217,26.56,22.411c0.313,1.823,0.352,3.622,0.354,4.816l0.004,28.114h-7l-0.004-28.108c-0.002-1.49-0.082-2.646-0.252-3.634c-1.684-9.771-9.77-16.597-19.663-16.598C231.934,6.995,129.44,6.998,26.946,7.028c-1.68,0.001-3.396,0.195-4.961,0.562C14.757,9.279,6.986,16.265,7,27.612c0.06,49.955,0.056,100.744,0.052,149.861c-0.002,21.248-0.004,42.495,0,63.742c0.001,1.231,0.017,2.531,0.202,3.675c1.645,10.128,9.662,16.934,19.949,16.934l306.994-0.016c1.637-0.002,2.916-0.104,4.019-0.322c9.65-1.906,16.133-9.911,16.133-19.918l0.003-26.232h7l-0.003,26.232c0,13.448-8.751,24.212-21.777,26.785c-1.559,0.308-3.266,0.452-5.371,0.455L27.203,268.823z"></path>
		</g>
		<g>
			<g>
				<rect x="150.089" y="262.568" fill="#2a2a2a" width="7" height="31.667"></rect>
			</g>
			<g>
				<rect x="204.265" y="262.568" fill="#2a2a2a" width="7" height="31.667"></rect>
			</g>
		</g>
		<g>
			<path fill="#2a2a2a" d="M401.74,142.906c-0.344-0.47-0.484-1.052-0.408-1.627c0.271-2.045,0.412-4.129,0.412-6.247c0-2.117-0.141-4.202-0.412-6.246c-0.076-0.575,0.064-1.158,0.408-1.627l11.285-15.416c0.473-0.646,0.557-1.492,0.237-2.226c-1.937-4.441-4.363-8.618-7.212-12.467c-0.476-0.641-1.25-0.988-2.043-0.902l-18.99,2.064c-0.578,0.063-1.155-0.107-1.615-0.464c-3.286-2.534-6.915-4.646-10.807-6.249c-0.538-0.224-0.975-0.637-1.209-1.168l-7.701-17.466c-0.322-0.732-1.012-1.228-1.807-1.318c-2.363-0.266-4.767-0.404-7.201-0.404c-2.436,0-4.838,0.139-7.202,0.404c-0.795,0.091-1.484,0.586-1.808,1.318l-7.7,17.466c-0.235,0.531-0.67,0.944-1.208,1.168c-3.893,1.604-7.521,3.715-10.807,6.249c-0.461,0.356-1.038,0.527-1.616,0.464l-18.989-2.064c-0.794-0.086-1.568,0.262-2.043,0.902c-2.85,3.849-5.275,8.025-7.213,12.467c-0.32,0.733-0.235,1.58,0.237,2.226l11.286,15.416c0.343,0.469,0.483,1.052,0.407,1.627c-0.271,2.044-0.411,4.129-0.411,6.246c0,2.118,0.141,4.202,0.411,6.247c0.076,0.575-0.064,1.157-0.407,1.627l-11.286,15.416c-0.473,0.646-0.558,1.492-0.237,2.226c1.938,4.44,4.363,8.618,7.213,12.466c0.475,0.642,1.249,0.989,2.043,0.903l18.989-2.064c0.578-0.063,1.155,0.107,1.616,0.464c3.285,2.534,6.914,4.646,10.807,6.25c0.538,0.223,0.973,0.635,1.208,1.167l7.701,17.466c0.322,0.731,1.012,1.228,1.807,1.318c2.364,0.266,4.767,0.404,7.202,0.404c2.435,0,4.838-0.139,7.201-0.404c0.795-0.091,1.484-0.587,1.807-1.318l7.701-17.466c0.234-0.532,0.671-0.944,1.209-1.167c3.892-1.604,7.521-3.716,10.807-6.25c0.46-0.356,1.037-0.527,1.615-0.464l18.99,2.064c0.793,0.086,1.567-0.262,2.043-0.903c2.849-3.848,5.275-8.025,7.212-12.466c0.319-0.733,0.235-1.58-0.237-2.226L401.74,142.906zM354.677,164.382c-16.209,0-29.35-13.141-29.35-29.35s13.141-29.349,29.35-29.349s29.349,13.14,29.349,29.349S370.886,164.382,354.677,164.382z"></path>
		</g>
		<g>
			<path fill="#2a2a2a" d="M120.533,96.192c-1.53-1.532-4.015-1.532-5.547,0l-37.649,37.65c-1.533,1.532-1.533,4.014,0,5.545l37.649,37.653c0.767,0.766,1.769,1.149,2.772,1.149c1.005,0,2.01-0.383,2.774-1.149c1.531-1.532,1.531-4.015,0-5.545l-34.878-34.88l34.878-34.877C122.063,100.207,122.063,97.722,120.533,96.192L120.533,96.192z M120.533,96.192"></path>
		</g>
		<g>
			<path fill="#2a2a2a" d="M202.324,96.192c-1.531,1.53-1.531,4.014,0,5.546l34.878,34.877l-34.878,34.88c-1.531,1.531-1.531,4.013,0,5.545c0.764,0.766,1.77,1.149,2.774,1.149c1.003,0,2.006-0.383,2.772-1.149l37.649-37.653c1.533-1.531,1.533-4.014,0-5.545l-37.649-37.65C206.339,94.661,203.854,94.661,202.324,96.192L202.324,96.192z M202.324,96.192"></path>
		</g>
		<g>
			<path fill="#2a2a2a" d="M160.156,169.974c-1.176,0-2.335,0.479-3.167,1.314c-0.837,0.832-1.316,1.991-1.316,3.17c0,1.176,0.479,2.338,1.316,3.166c0.832,0.838,1.991,1.317,3.167,1.317c1.18,0,2.338-0.479,3.17-1.317c0.838-0.828,1.314-1.99,1.314-3.166c0-1.179-0.476-2.338-1.314-3.17C162.494,170.453,161.335,169.974,160.156,169.974L160.156,169.974z M160.156,169.974"></path>
		</g>
		<g>
			<path fill="#2a2a2a" d="M160.156,97.042c-15.232,0-27.626,12.394-27.626,27.627c0,2.061,1.672,3.733,3.733,3.733s3.733-1.672,3.733-3.733c0-11.118,9.045-20.16,20.16-20.16c11.118,0,20.163,9.042,20.163,20.16c0,11.117-9.044,20.159-20.163,20.159c-2.061,0-3.733,1.672-3.733,3.734v7.964c0,2.061,1.673,3.734,3.733,3.734c2.064,0,3.734-1.673,3.734-3.734v-4.481c13.475-1.828,23.895-13.408,23.895-27.376C187.785,109.436,175.391,97.042,160.156,97.042L160.156,97.042z M160.156,97.042"></path>
		</g>
	</g>
</svg>