<svg version="1.1" xmlns="http://www.w3.org/2000/svg" xmlns:xlink="http://www.w3.org/1999/xlink" x="0px" y="0px" width="354.354px" height="310.359px" viewBox="0 0 354.354 310.359" enable-background="new 0 0 354.354 310.359" xml:space="preserve">
	<g>
		<g>
			<g>
				<path fill="#2a2a2a" d="M104.713,307.713c-0.015,0.078-0.024,0.193-0.021,0.193C104.691,307.907,104.699,307.857,104.713,307.713L104.713,307.713z"></path>
			</g>
			<g>
				<path fill="#2a2a2a" d="M232.595,292.125c6.209,0.508,8.593,6.514,9.506,11.233H112.137c0.464-3.237,1.378-5.921,2.686-7.847c1.442-2.126,3.244-3.175,5.822-3.383L232.595,292.125 M232.843,285.125l-112.446,0.004c-10.368,0.658-14.776,9.822-15.499,20.174c-0.101,1.441-0.157,2.119-0.185,2.41c0.008-0.039,0.016-0.068,0.025-0.068c0.037,0,0.083,0.477,0.083,2.714c51.211,0,93.49,0,144.842,0c0-4.122-0.016-3.491-0.268-5.609C248.185,294.573,243.079,285.768,232.843,285.125L232.843,285.125z"></path>
			</g>
		</g>
		<g>
			<path fill="#2a2a2a" d="M220.511,7c36.803,0,73.614,0.002,110.416,0.007c8.287,0,14.803,5.503,16.214,13.691c0.136,0.789,0.199,1.758,0.201,3.041c0.014,71.442,0.016,142.885,0.008,214.328c0,8.416-5.225,14.887-13.312,16.484c-0.876,0.173-1.94,0.254-3.341,0.256l-306.994,0.016c-8.639,0-15.113-5.494-16.494-13.993c-0.144-0.889-0.156-2.028-0.157-3.115c-0.003-21.252-0.001-42.504,0-63.756C7.057,124.844,7.061,74.058,7,24.106C6.988,14.669,13.357,8.881,19.282,7.497c1.31-0.307,2.75-0.469,4.165-0.469C89.139,7.008,154.82,7,220.511,7 M220.511,0C154.819,0,89.137,0.008,23.445,0.027c-1.922,0.001-3.888,0.216-5.758,0.653C8.43,2.845-0.016,11.551,0,24.115c0.086,71.2,0.041,142.401,0.052,213.601c0.001,1.412,0.022,2.844,0.247,4.232c1.923,11.838,11.409,19.875,23.404,19.875l306.994-0.016c1.566-0.002,3.164-0.086,4.697-0.389c11.34-2.24,18.955-11.631,18.955-23.352c0.008-71.443,0.006-142.887-0.008-214.329c-0.002-1.41-0.064-2.841-0.303-4.227c-1.98-11.493-11.445-19.503-23.111-19.504C294.125,0.002,257.313,0,220.511,0L220.511,0z"></path>
		</g>
		<g>
			<g>
				<rect x="146.589" y="257.068" fill="#2a2a2a" width="7" height="31.667"></rect>
			</g>
			<g>
				<rect x="200.766" y="257.068" fill="#2a2a2a" width="7" height="31.667"></rect>
			</g>
		</g>
		<g>
			<path fill-rule="evenodd" clip-rule="evenodd" fill="#2a2a2a" d="M184.856,230.29c0.012,4.264-3.438,7.74-7.678,7.742c-4.182,0-7.652-3.443-7.682-7.623c-0.029-4.271,3.369-7.748,7.625-7.797C181.356,222.565,184.843,226.026,184.856,230.29z"></path>
		</g>
		<g>
			<g>
				<rect x="153.387" y="68.555" fill="#231F20" width="155.43" height="0.004"></rect>
			</g>
			<g>
				<path fill="none" d="M299.607,68.557c4.96,0,8.26,3.276,8.956,6.512c0.149,0.696,0.229,1.396,0.23,2.013c0.02,33.184,0.023,66.808,0.012,99.938c-0.002,4.636-3.592,8.348-8.174,8.449c-2.185,0.049-4.556,0.071-7.461,0.071c-1.731,0-3.463-0.008-5.195-0.016c-1.753-0.008-3.505-0.016-5.259-0.016c-10.399,0.002-20.798,0.002-31.197,0.002h-20.474c-6.462,0-12.924-0.006-19.387-0.012c-6.468-0.006-12.935-0.012-19.401-0.012c-11.602,0-21.063,0.02-29.741,0.062h-0.087c-4.734,0-7.761-3.014-8.567-5.812c-0.278-0.964-0.433-2.057-0.434-3.074c-0.036-30.419-0.043-62.869-0.021-99.205c0.002-4.607,2.759-7.963,7.195-8.758c0.483-0.087,1.338-0.087,2.027-0.087l11.722-0.001c9.368,0,18.736,0.002,28.104,0.003c9.368,0.002,18.736,0.004,28.106,0.004c20.236,0,44.262-0.007,69.003-0.062H299.607"></path>
			</g>
			<g>
				<path fill="#2a2a2a" d="M45.539,185.516h63.07H45.539z"></path>
			</g>
			<g>
				<path fill="#231F20" d="M108.609,68.571h-63.07H108.609z"></path>
			</g>
			<g>
				<path fill="none" d="M99.771,68.57c4.188,0,7.901,2.951,8.636,6.868c0.122,0.646,0.184,1.429,0.185,2.326c0.015,29.796,0.018,62.052,0.01,98.608c-0.001,4.768-2.768,8.232-7.215,9.041c-0.48,0.087-1.319,0.087-1.776,0.087c-8.944,0.008-17.892,0.014-26.837,0.014c-6.091,0-12.179-0.002-18.27-0.011c-4.503-0.006-7.856-2.601-8.753-6.772c-0.126-0.587-0.191-1.352-0.192-2.269c-0.018-13.285-0.017-26.569-0.015-39.854v-9.626l-0.001-14.468c-0.002-11.713-0.003-23.426,0.004-35.139c0.003-4.502,2.863-7.915,7.288-8.695c0.39-0.068,1.141-0.068,1.688-0.069h0.159l2.435-0.001c3.958,0,7.917,0.006,11.876,0.012c3.965,0.005,7.931,0.011,11.896,0.011c7.322,0,13.298-0.02,18.829-0.063H99.771"></path>
			</g>
			<g>
				<path fill-rule="evenodd" clip-rule="evenodd" fill="#2a2a2a" d="M231.126,161.331c4.268,0.008,7.73,3.486,7.686,7.723c-0.045,4.211-3.471,7.623-7.664,7.633c-4.266,0.01-7.746-3.434-7.75-7.672C223.394,164.77,226.858,161.325,231.126,161.331z"></path>
			</g>
			<g>
				<path fill-rule="evenodd" clip-rule="evenodd" fill="#2a2a2a" d="M77.029,161.331c4.27-0.02,7.749,3.418,7.758,7.664c0.008,4.174-3.442,7.658-7.617,7.691c-4.275,0.035-7.761-3.363-7.81-7.613C69.312,164.84,72.768,161.352,77.029,161.331z"></path>
			</g>
			<g>
				<path fill="#2a2a2a" d="M299.608,68.557c4.96,0,8.26,3.277,8.956,6.513c0.149,0.695,0.229,1.395,0.23,2.012c0.02,33.184,0.023,66.808,0.012,99.938c-0.002,4.636-3.592,8.348-8.174,8.449c-2.185,0.049-4.556,0.071-7.461,0.071c-1.731,0-3.463-0.008-5.195-0.016c-1.753-0.008-3.505-0.016-5.259-0.016c-10.399,0.002-20.798,0.002-31.197,0.002h-20.474c-6.462,0-12.924-0.006-19.387-0.012c-6.468-0.006-12.935-0.012-19.401-0.012c-11.602,0-21.063,0.02-29.741,0.062h-0.087c-4.734,0-7.761-3.014-8.567-5.812c-0.278-0.964-0.433-2.057-0.434-3.074c-0.036-30.419-0.043-62.869-0.021-99.206c0.002-4.606,2.759-7.962,7.191-8.757c0.486-0.087,1.342-0.087,2.031-0.087l11.722-0.001c9.368,0,18.736,0.002,28.104,0.004c9.368,0.001,18.736,0.003,28.106,0.003c20.349,0,44.462-0.007,69.003-0.062H299.608 M299.608,61.557c0,0-0.028,0-0.042,0c-23.002,0.051-46.001,0.062-69.003,0.062c-18.738,0-37.473-0.007-56.211-0.007c-3.906,0-7.817,0-11.724,0.001c-1.088,0-2.197,0.006-3.262,0.196c-7.766,1.393-12.955,7.623-12.959,15.645c-0.02,33.072-0.018,66.145,0.021,99.217c0.002,1.672,0.244,3.4,0.707,5.006c1.627,5.636,7.338,10.872,15.294,10.872c0.029,0,0.059,0,0.087,0c9.915-0.048,19.827-0.062,29.741-0.062c12.929,0,25.86,0.023,38.788,0.023c6.825,0,13.649,0,20.474,0c10.399,0,20.799,0,31.198-0.002c3.484,0,6.969,0.031,10.453,0.031c2.539,0,5.079-0.017,7.617-0.073c8.412-0.187,15.014-7.034,15.018-15.444c0.012-33.315,0.008-66.63-0.012-99.944c-0.002-1.161-0.143-2.344-0.387-3.479C314.063,67.346,308.056,61.557,299.608,61.557L299.608,61.557z"></path>
			</g>
			<g>
				<path fill="#2a2a2a" d="M99.771,68.57c4.188,0,7.901,2.951,8.637,6.868c0.121,0.646,0.183,1.429,0.184,2.325c0.014,29.797,0.018,62.052,0.01,98.609c-0.001,4.768-2.768,8.232-7.215,9.041c-0.48,0.087-1.319,0.087-1.776,0.087c-8.944,0.008-17.892,0.014-26.837,0.014c-6.09,0-12.179-0.002-18.27-0.011c-4.503-0.006-7.857-2.601-8.753-6.772c-0.126-0.587-0.19-1.352-0.192-2.269c-0.018-13.285-0.017-26.569-0.016-39.854l0.001-9.626l-0.001-14.468c-0.002-11.713-0.003-23.426,0.004-35.139c0.003-4.502,2.863-7.915,7.287-8.695c0.387-0.068,1.142-0.068,1.686-0.069l1.302-0.001h1.296c3.958,0,7.917,0.006,11.876,0.011c3.966,0.006,7.931,0.012,11.896,0.012c7.364,0,13.332-0.021,18.778-0.063H99.771M99.771,61.57c-0.044,0-0.087,0-0.131,0c-6.251,0.05-12.5,0.063-18.752,0.063c-7.923,0-15.849-0.022-23.771-0.022c-0.866,0-1.732,0.001-2.598,0.001c-0.969,0.001-1.953,0.009-2.9,0.176c-7.758,1.368-13.067,7.701-13.072,15.585c-0.01,16.536-0.003,33.073-0.003,49.61c0,16.496-0.007,32.992,0.015,49.488c0.002,1.246,0.088,2.518,0.349,3.73c1.591,7.406,7.779,12.291,15.587,12.302c6.094,0.009,12.186,0.011,18.279,0.011c8.947,0,17.896-0.006,26.843-0.014c1.007,0,2.032-0.021,3.019-0.199c7.811-1.42,12.965-7.75,12.967-15.927c0.007-32.872,0.006-65.743-0.01-98.614c-0.001-1.207-0.082-2.433-0.305-3.616C113.979,67.174,107.635,61.57,99.771,61.57L99.771,61.57z"></path>
			</g>
		</g>
	</g>
</svg>