<svg version="1.1" xmlns="http://www.w3.org/2000/svg" xmlns:xlink="http://www.w3.org/1999/xlink" x="0px" y="0px" width="206.609px" height="219.438px" viewBox="0 0 206.609 219.438" enable-background="new 0 0 206.609 219.438" xml:space="preserve">
	<g>
		<g>
			<defs>
				<path id="SVGID_1_" d="M206.609,195.566c0,2.762-2.238,5-5,5h-59.334c-2.762,0-5-2.238-5-5v-138c0-2.762,2.238-5,5-5h59.334c2.762,0,5,2.238,5,5V195.566z"></path>
			</defs>
			<use xlink:href="#SVGID_1_" overflow="visible" fill="#2a2a2a"></use>
			<clipPath id="SVGID_2_">
				<use xlink:href="#SVGID_1_" overflow="visible"></use>
			</clipPath>
			<g clip-path="url(#SVGID_2_)">
				<rect x="137.275" y="51.233" fill="#2a2a2a" width="69.336" height="149.332"></rect>
			</g>
			<g clip-path="url(#SVGID_2_)">
				<line fill="#2a2a2a" x1="155.992" y1="108.677" x2="187.893" y2="108.677"></line>
				<path fill="#161616" d="M187.893,110.677h-31.9c-1.104,0-2-0.896-2-2s0.896-2,2-2h31.9c1.104,0,2,0.896,2,2S188.997,110.677,187.893,110.677z"></path>
			</g>
			<g clip-path="url(#SVGID_2_)">
				<line fill="#2a2a2a" x1="155.992" y1="71.899" x2="187.893" y2="71.899"></line>
				<path fill="#161616" d="M187.893,73.899h-31.9c-1.104,0-2-0.896-2-2s0.896-2,2-2h31.9c1.104,0,2,0.896,2,2S188.997,73.899,187.893,73.899z"></path>
			</g>
			<g clip-path="url(#SVGID_2_)">
				<line fill="#2a2a2a" x1="155.992" y1="145.455" x2="187.893" y2="145.455"></line>
				<path fill="#161616" d="M187.893,147.455h-31.9c-1.104,0-2-0.896-2-2s0.896-2,2-2h31.9c1.104,0,2,0.896,2,2S188.997,147.455,187.893,147.455z"></path>
			</g>
			<g clip-path="url(#SVGID_2_)">
				<line fill="#2a2a2a" x1="155.992" y1="182.232" x2="187.893" y2="182.232"></line>
				<path fill="#161616" d="M187.893,184.232h-31.9c-1.104,0-2-0.896-2-2s0.896-2,2-2h31.9c1.104,0,2,0.896,2,2S188.997,184.232,187.893,184.232z"></path>
			</g>
		</g>
		<g>
			<path fill="#2a2a2a" d="M138.548,193.594H7.786c-4.293,0-7.786-3.492-7.786-7.786V99.019c0-4.293,3.493-7.786,7.786-7.786h130.762c4.293,0,7.786,3.493,7.786,7.786v86.789C146.334,190.102,142.841,193.594,138.548,193.594z M7.786,95.232C5.698,95.232,4,96.931,4,99.019v86.789c0,2.088,1.698,3.786,3.786,3.786h130.762c2.088,0,3.786-1.698,3.786-3.786V99.019c0-2.088-1.698-3.786-3.786-3.786H7.786z"></path>
		</g>
		<g>
			<g>
				<g>
					<path fill="#2a2a2a" d="M73.167,72.68c-9.688,0-17.571-7.882-17.571-17.571c0-4.239,1.533-8.333,4.316-11.528c0.726-0.832,1.987-0.92,2.821-0.194c0.833,0.726,0.92,1.989,0.194,2.822c-2.148,2.466-3.332,5.626-3.332,8.9c0,7.483,6.088,13.571,13.571,13.571s13.571-6.088,13.571-13.571c0-3.273-1.184-6.434-3.332-8.9c-0.726-0.833-0.639-2.096,0.194-2.822c0.833-0.726,2.096-0.638,2.821,0.194c2.783,3.194,4.316,7.289,4.316,11.528C90.738,64.797,82.855,72.68,73.167,72.68z"></path>
				</g>
				<g>
					<path fill="#2a2a2a" d="M84.914,46.895c-0.567,0-1.121-0.242-1.509-0.688c-2.582-2.968-6.313-4.67-10.238-4.67s-7.656,1.702-10.238,4.67c-0.549,0.629-1.431,0.851-2.21,0.561c-0.781-0.292-1.299-1.039-1.299-1.873v-9.701c0-7.58,6.167-13.746,13.747-13.746s13.747,6.167,13.747,13.746v9.701c0,0.834-0.518,1.581-1.299,1.873C85.387,46.853,85.149,46.895,84.914,46.895z M73.167,37.537c3.504,0,6.888,1.047,9.747,2.956v-5.299c0-5.374-4.372-9.746-9.747-9.746s-9.747,4.372-9.747,9.746v5.299C66.279,38.584,69.663,37.537,73.167,37.537z"></path>
				</g>
				<g>
					<path fill="#2a2a2a" d="M84.915,46.895c-0.559,0-1.114-0.233-1.51-0.688c-2.582-2.968-6.313-4.67-10.238-4.67s-7.656,1.702-10.238,4.67c-0.726,0.833-1.988,0.921-2.821,0.196c-0.834-0.725-0.922-1.988-0.196-2.821c3.342-3.842,8.174-6.045,13.256-6.045s9.914,2.203,13.256,6.045c0.726,0.833,0.638,2.097-0.196,2.821C85.848,46.733,85.38,46.895,84.915,46.895z"></path>
				</g>
			</g>
			<g>
				<path fill="#2a2a2a" d="M73.167,60.871c-2.963,0-5.374-2.41-5.374-5.373s2.411-5.373,5.374-5.373c2.962,0,5.372,2.41,5.372,5.373S76.129,60.871,73.167,60.871z M73.167,54.125c-0.758,0-1.374,0.616-1.374,1.373s0.616,1.373,1.374,1.373c0.757,0,1.372-0.616,1.372-1.373S73.924,54.125,73.167,54.125z"></path>
			</g>
		</g>
		<g>
			<g>
				<path fill="#2a2a2a" d="M86.86,210.952H59.475c-1.104,0-2-0.896-2-2v-17.358c0-1.104,0.896-2,2-2H86.86c1.104,0,2,0.896,2,2v17.358C88.86,210.057,87.965,210.952,86.86,210.952z M61.475,206.952H84.86v-13.358H61.475V206.952z"></path>
			</g>
			<g>
				<path fill="#2a2a2a" d="M107.111,219.438H39.224c-3.442,0-6.243-2.801-6.243-6.242c0-3.442,2.801-6.243,6.243-6.243h67.888c3.442,0,6.243,2.801,6.243,6.243C113.354,216.637,110.554,219.438,107.111,219.438z M39.224,210.952c-1.237,0-2.243,1.007-2.243,2.243s1.006,2.242,2.243,2.242h67.888c1.237,0,2.243-1.006,2.243-2.242s-1.006-2.243-2.243-2.243H39.224z"></path>
			</g>
		</g>
		<g>
			<path fill="#2a2a2a" d="M73.167,95.097c-1.104,0-2-0.896-2-2V79.232c0-1.104,0.896-2,2-2s2,0.896,2,2v13.864C75.167,94.201,74.271,95.097,73.167,95.097z"></path>
		</g>
		<g>
			<path fill="#2a2a2a" d="M171.942,44.482c-1.104,0-2-0.896-2-2V22c0-9.925-8.075-18-18-18H93.167c-7.741,0-14.599,4.925-17.064,12.256c-0.353,1.046-1.479,1.614-2.533,1.258c-1.047-0.352-1.61-1.486-1.258-2.533C75.325,6.02,83.707,0,93.167,0h58.775c12.131,0,22,9.869,22,22v20.482C173.942,43.587,173.047,44.482,171.942,44.482z"></path>
		</g>
		<g>
			<g>
				<path fill="#2a2a2a" d="M58.979,157.262c-0.512,0-1.023-0.195-1.414-0.586c-0.781-0.781-0.781-2.047,0-2.828l11.435-11.436l-11.434-11.434c-0.781-0.781-0.781-2.047,0-2.828s2.047-0.781,2.828,0l12.848,12.848c0.781,0.781,0.781,2.047,0,2.828l-12.849,12.85C60.002,157.066,59.49,157.262,58.979,157.262z"></path>
			</g>
			<g>
				<path fill="#2a2a2a" d="M94.355,159.262H75.757c-1.104,0-2-0.896-2-2s0.896-2,2-2h18.599c1.104,0,2,0.896,2,2S95.46,159.262,94.355,159.262z"></path>
			</g>
		</g>
	</g>
</svg>