<svg version="1.1" xmlns="http://www.w3.org/2000/svg" xmlns:xlink="http://www.w3.org/1999/xlink" x="0px" y="0px" width="189.5px" height="145.953px" viewBox="0 0 189.5 145.953" enable-background="new 0 0 189.5 145.953" xml:space="preserve">
	<g>
		<g>
			<path fill="#2a2a2a" d="M127.667,127.643H61.833c-1.104,0-2-0.895-2-2c0-1.104,0.896-2,2-2h65.834c1.104,0,2,0.896,2,2C129.667,126.748,128.771,127.643,127.667,127.643z"></path>
		</g>
		<g>
			<path fill="#2a2a2a" d="M175.5,127.643H14c-1.104,0-2-0.895-2-2v-93c0-1.104,0.896-2,2-2h87.5c1.104,0,2,0.896,2,2c0,1.105-0.896,2-2,2H16v89h157.5v-89h-2c-1.104,0-2-0.895-2-2c0-1.104,0.896-2,2-2h4c1.104,0,2,0.896,2,2v93C177.5,126.748,176.604,127.643,175.5,127.643z"></path>
		</g>
		<g>
			<path fill="#2a2a2a" d="M38.78,109.615c-0.512,0-1.024-0.195-1.414-0.586L26.263,97.924c-0.781-0.781-0.781-2.047,0-2.828l11.103-11.102c0.78-0.781,2.048-0.781,2.828,0c0.781,0.781,0.781,2.047,0,2.828l-9.688,9.688l9.689,9.691c0.781,0.781,0.781,2.047,0,2.828C39.804,109.42,39.292,109.615,38.78,109.615z"></path>
		</g>
		<g>
			<path fill="#2a2a2a" d="M66.003,109.615c-0.512,0-1.023-0.195-1.414-0.586c-0.781-0.781-0.781-2.047,0-2.828l9.689-9.691l-9.688-9.688c-0.781-0.781-0.781-2.047,0-2.828c0.78-0.781,2.048-0.781,2.828,0l11.103,11.102c0.781,0.781,0.781,2.047,0,2.828l-11.104,11.105C67.027,109.42,66.515,109.615,66.003,109.615z"></path>
		</g>
		<g>
			<g>
				<path fill="#2a2a2a" d="M47.322,115.881c-0.198,0-0.399-0.029-0.599-0.092c-1.054-0.33-1.641-1.453-1.311-2.506l10.883-34.738c0.331-1.055,1.452-1.641,2.507-1.311c1.054,0.33,1.641,1.453,1.311,2.506L49.23,114.479C48.962,115.334,48.173,115.881,47.322,115.881z"></path>
			</g>
		</g>
		<g>
			<path fill="#2a2a2a" d="M174.476,145.953H15.024c-0.53,0-1.039-0.211-1.414-0.586L0.586,132.342C0.211,131.967,0,131.459,0,130.928v-5.285c0-1.104,0.896-2,2-2h74.625c0.513,0,1.007,0.197,1.379,0.553l4.973,4.732h23.547l4.973-4.732c0.372-0.355,0.865-0.553,1.379-0.553H187.5c1.104,0,2,0.896,2,2v5.285c0,0.531-0.211,1.039-0.586,1.414l-13.024,13.025C175.515,145.742,175.006,145.953,174.476,145.953z M15.853,141.953h157.794L185.5,130.1v-2.457h-71.825l-4.973,4.734c-0.372,0.354-0.865,0.551-1.379,0.551H82.177c-0.514,0-1.007-0.197-1.379-0.551l-4.973-4.734H4v2.457L15.853,141.953z"></path>
		</g>
		<g>
			<path fill="#2a2a2a" d="M68.815,51.482h-5.139c-1.104,0-2-0.895-2-2c0-1.104,0.896-2,2-2h5.139c1.104,0,2,0.896,2,2C70.815,50.588,69.92,51.482,68.815,51.482z M57.677,51.482h-6c-1.104,0-2-0.895-2-2c0-1.104,0.896-2,2-2h6c1.104,0,2,0.896,2,2C59.677,50.588,58.781,51.482,57.677,51.482z M45.677,51.482h-6c-1.104,0-2-0.895-2-2c0-1.104,0.896-2,2-2h6c1.104,0,2,0.896,2,2C47.677,50.588,46.781,51.482,45.677,51.482z M33.677,51.482h-6c-1.104,0-2-0.895-2-2c0-1.104,0.896-2,2-2h6c1.104,0,2,0.896,2,2C35.677,50.588,34.781,51.482,33.677,51.482z"></path>
		</g>
		<g>
			<path fill="#2a2a2a" d="M45.677,62.482h-6c-1.104,0-2-0.895-2-2c0-1.104,0.896-2,2-2h6c1.104,0,2,0.896,2,2C47.677,61.588,46.781,62.482,45.677,62.482z M33.677,62.482h-6c-1.104,0-2-0.895-2-2c0-1.104,0.896-2,2-2h6c1.104,0,2,0.896,2,2C35.677,61.588,34.781,62.482,33.677,62.482z"></path>
		</g>
		<g>
			<g>
				<path fill="#2a2a2a" d="M136.632,0c-17.1,0-30.956,13.861-30.956,30.951c0,17.098,13.856,30.953,30.956,30.953c17.099,0,30.956-13.852,30.956-30.953C167.588,13.861,153.729,0,136.632,0z M131.983,49.4c-0.695,0.688-1.814,0.688-2.502,0l-0.555-0.555l0,0l-0.604-0.6l-2.59-2.59l-0.041-0.059l-11.881-11.971c-0.691-0.688-0.691-1.814,0-2.496l3.744-3.744c0.695-0.693,1.807-0.693,2.498,0l10.689,10.766l22.464-22.469c0.688-0.689,1.807-0.689,2.494,0l3.744,3.748c0.691,0.688,0.691,1.811,0,2.498L131.983,49.4z"></path>
			</g>
		</g>
	</g>
</svg>