<svg version="1.1" xmlns="http://www.w3.org/2000/svg" xmlns:xlink="http://www.w3.org/1999/xlink" x="0px" y="0px" width="115.236px" height="112.35px" viewBox="0 0 115.236 112.35" enable-background="new 0 0 115.236 112.35" xml:space="preserve">
	<g>
		<path fill-rule="evenodd" clip-rule="evenodd" fill="#2a2a2a" d="M85.876,43.613c-4.559-4.569-9.083-9.094-13.593-13.635c-0.596-0.601-1.698-1.241-0.757-2.196c0.93-0.942,1.601,0.105,2.208,0.715c4.514,4.537,9.014,9.085,13.611,13.723c4.479-3.649,9.458-4.976,14.976-3.743c4.036,0.901,7.273,3.134,9.741,6.461c4.697,6.337,4.108,15.389-1.291,21.207c-5.182,5.582-15.075,7.862-23.548,1.088c-0.6,0.667-1.193,1.397-1.858,2.056c-3.978,3.936-7.971,7.856-11.959,11.782c-0.236,0.232-0.444,0.598-0.722,0.662c-0.449,0.104-1.11,0.186-1.37-0.057c-0.243-0.225-0.228-0.952-0.057-1.339c0.199-0.446,0.688-0.766,1.06-1.132c4.421-4.364,8.843-8.726,13.265-13.091c0.065-0.065,0.106-0.154,0.221-0.326C80.418,58.48,80.394,51.097,85.876,43.613z M83.934,54.733c0.003,8.138,6.525,14.694,14.595,14.669c8.104-0.025,14.602-6.568,14.584-14.688c-0.018-8.018-6.543-14.579-14.54-14.617C90.499,40.06,83.931,46.625,83.934,54.733z"></path>
		<path fill-rule="evenodd" clip-rule="evenodd" fill="#2a2a2a" d="M29.323,65.9c3.139,3.211,6.285,6.431,9.433,9.649c1.525,1.56,3.052,3.119,4.579,4.677c0.519,0.529,1.07,1.133,0.408,1.828c-0.73,0.767-1.364,0.193-1.924-0.378c-4.313-4.407-8.631-8.81-12.931-13.23c-0.357-0.367-0.587-0.857-0.848-1.249c-8.877,7.011-19,4.357-24-1.531c-5.479-6.451-5.378-15.813,0.251-22.123c5.309-5.948,15.336-7.969,23.461-1.441c0.355-0.328,0.736-0.66,1.096-1.015c4.15-4.101,8.297-8.206,12.447-12.307c0.304-0.3,0.589-0.727,0.953-0.823c0.384-0.101,0.963-0.001,1.253,0.248c0.208,0.181,0.205,0.797,0.074,1.131c-0.145,0.369-0.533,0.65-0.834,0.95c-4.105,4.08-8.209,8.161-12.328,12.227c-0.366,0.362-0.838,0.621-1.23,0.905C34.857,50.493,34.619,59.354,29.323,65.9z M16.648,69.383c8.054,0.02,14.671-6.583,14.672-14.639c0.001-8.011-6.52-14.589-14.518-14.644C8.763,40.044,2.1,46.626,2.053,54.669C2.008,62.711,8.606,69.364,16.648,69.383z"></path>
		<path fill-rule="evenodd" clip-rule="evenodd" fill="#2a2a2a" d="M40.926,95.561c0.043-9.223,7.459-16.618,16.663-16.619c9.267-0.001,16.771,7.491,16.733,16.707c-0.038,9.336-7.535,16.75-16.889,16.702C48.302,112.303,40.882,104.757,40.926,95.561zM57.662,81.044c-8.034-0.018-14.615,6.482-14.655,14.474c-0.041,8.126,6.436,14.711,14.515,14.762c8.144,0.052,14.804-6.579,14.759-14.694C72.236,87.574,65.69,81.062,57.662,81.044z"></path>
		<path fill-rule="evenodd" clip-rule="evenodd" fill="#2a2a2a" d="M56.641,31.689c-3.134,0-5.811-0.73-8.186-2.234c-7.053-4.466-9.257-13.698-4.913-20.579c2.878-4.559,6.91-7.453,11.985-8.602c0.224-0.051,0.441-0.128,0.659-0.206L56.386,0h5.307c2.648,0.685,5.204,1.457,7.363,3.275c3.625,3.052,5.402,6.935,5.283,11.54c-0.085,3.354-2.907,6.784-6.29,7.646c-0.508,0.129-0.992,0.194-1.44,0.194c-1.632,0-2.874-0.84-3.796-2.568l-0.266-0.496l-0.449,0.337c-0.344,0.258-0.672,0.523-0.995,0.785c-0.679,0.548-1.32,1.066-2.021,1.451c-1.443,0.792-2.629,1.161-3.73,1.161c-1.077,0-2.056-0.363-2.993-1.109c-2.09-1.665-2.745-3.913-2.001-6.875c1.088-4.335,4.528-7.274,8.979-7.671c0.706-0.063,1.468-0.093,2.395-0.093c0.665,0,1.338,0.015,2.023,0.03c0.545,0.012,1.099,0.024,1.663,0.029l-0.255,2.127c-0.219,1.845-0.423,3.559-0.646,5.269c-0.233,1.803,0.333,4.125,1.552,4.706c0.231,0.11,0.511,0.167,0.831,0.167c1.186,0,2.919-0.798,3.767-2.133c0.65-1.021,1.433-2.561,1.468-4.101c0.068-3.038-0.822-5.552-2.646-7.474c-2.937-3.094-6.317-4.663-10.051-4.663c-1.207,0-2.469,0.165-3.751,0.491c-4.499,1.143-7.898,3.584-10.104,7.258c-2.311,3.849-2.737,8.432-1.144,12.261c1.573,3.777,4.894,6.46,9.349,7.556c0.811,0.199,1.723,0.315,2.787,0.354c0.121,0.005,0.242,0.007,0.363,0.007c0.516,0,1.038-0.038,1.602-0.078c0.184-0.013,0.37-0.027,0.564-0.04l0.473,2.152C58.538,31.626,57.573,31.689,56.641,31.689z M61.002,9.798c-3.703,0-6.903,2.203-8.153,5.613c-0.765,2.087-0.428,3.976,0.901,5.051c0.451,0.365,1.049,0.559,1.728,0.559h0.001c0.938,0,2.008-0.371,3.015-1.043c3.76-2.51,4.298-6.441,4.348-9.585l0.006-0.419l-0.414-0.064C61.957,9.835,61.476,9.798,61.002,9.798z"></path>
		<path fill-rule="evenodd" clip-rule="evenodd" fill="#2a2a2a" d="M14.315,55.114c-0.712,0-1.329,0-1.986,0c0-0.917,0-1.791,0-2.712c0.626,0,1.242,0,1.954,0c0-0.807-0.007-1.57,0.001-2.334c0.019-1.871,1.183-3.184,3.055-3.356c0.856-0.079,1.727-0.014,2.62-0.014c0,0.87,0,1.685,0,2.545c-0.594,0-1.138-0.012-1.68,0.002c-0.877,0.022-1.141,0.297-1.145,1.171c-0.002,0.604,0.004,1.208,0.01,1.812c0,0.034,0.026,0.066,0.063,0.152c0.913,0,1.848,0,2.734,0c0,0.93,0,1.805,0,2.716c-0.968,0-1.85,0-2.8,0c0,2.497,0,4.954,0,7.439c-0.969,0-1.867,0-2.827,0C14.315,60.083,14.315,57.641,14.315,55.114z"></path>
		<path fill-rule="evenodd" clip-rule="evenodd" fill="#2a2a2a" d="M91.69,59.865c1.546,0.075,2.948-0.225,4.199-1.138c-0.153-0.172-0.329-0.159-0.48-0.199c-0.897-0.241-1.569-0.767-2.01-1.584c-0.206-0.381-0.157-0.461,0.265-0.467c0.179-0.002,0.357-0.004,0.536-0.008c0.044-0.001,0.088-0.011,0.257-0.033c-0.754-0.275-1.33-0.628-1.746-1.206c-0.304-0.422-0.478-0.89-0.565-1.395c-0.056-0.321,0.066-0.413,0.37-0.293c0.261,0.102,0.529,0.185,0.878,0.175c-0.737-0.588-1.117-1.322-1.232-2.199c-0.071-0.552,0.075-1.065,0.283-1.563c0.149-0.359,0.289-0.094,0.405,0.033c1.086,1.174,2.384,2.014,3.91,2.496c0.584,0.185,1.188,0.278,1.793,0.363c0.254,0.036,0.348-0.033,0.327-0.309c-0.104-1.352,0.426-2.397,1.628-3.027c1.229-0.645,2.422-0.504,3.498,0.382c0.244,0.2,0.463,0.146,0.707,0.089c0.475-0.113,0.899-0.363,1.456-0.582c-0.208,0.695-0.588,1.13-1.104,1.55c0.522,0.044,0.922-0.229,1.466-0.273c-0.298,0.451-0.563,0.819-0.938,1.078c-0.381,0.264-0.492,0.599-0.509,1.059c-0.169,4.516-3.741,8.347-8.42,8.419c-1.616,0.025-3.14-0.254-4.565-1.021c-0.105-0.056-0.21-0.117-0.308-0.183C91.761,60.008,91.749,59.961,91.69,59.865z"></path>
		<path fill-rule="evenodd" clip-rule="evenodd" fill="#2a2a2a" d="M65.277,100.125c-0.045-0.101-0.112-0.101-0.172-0.118c-1.621-0.419-2.603-1.545-3.285-2.985c-0.276-0.582-0.062-1.062,0.524-1.354c0.193-0.098,0.78-0.327,0.983-0.411c0.181-0.073,0.363-0.15,0.529-0.241c0.109-0.058,0.196-0.151,0.147-0.285c-0.038-0.125-0.147-0.175-0.267-0.192c-0.149-0.021-0.281,0.033-0.425,0.07c-0.209,0.065-0.797,0.304-1.011,0.32c-0.482,0.034-0.686-0.174-0.679-0.658c0.006-0.753,0.033-1.508,0.02-2.261c-0.014-1.206-0.631-2.096-1.598-2.74c-1.223-0.823-2.593-0.897-3.955-0.454c-1.391,0.454-2.286,1.438-2.501,2.905c-0.119,0.817-0.066,1.659,0.02,2.486c0.047,0.483-0.086,0.668-0.577,0.726c-0.263,0.027-0.519-0.037-0.768-0.115c-0.093-0.029-0.999-0.069-1.103-0.084c-0.159-0.027-0.327,0.003-0.395,0.171c-0.075,0.178,0.089,0.263,0.208,0.32c0.256,0.12,1.332,0.215,1.6,0.317c0.906,0.335,1.149,0.866,0.699,1.723c-0.68,1.293-1.605,2.325-3.083,2.728c-0.083,0.022-0.21,0.002-0.21,0.126c-0.008,0.105,0.11,0.135,0.189,0.176c0.362,0.182,0.746,0.306,1.149,0.334c0.497,0.042,0.772,0.272,0.813,0.766c0.026,0.309,0.167,0.377,0.471,0.307c1.073-0.25,2.042-0.054,2.927,0.648c0.442,0.353,0.936,0.642,1.519,0.745c1.015,0.179,1.882-0.134,2.648-0.752c0.859-0.685,1.806-0.876,2.854-0.659c0.322,0.067,0.491,0.01,0.532-0.335c0.059-0.448,0.313-0.695,0.777-0.709c0.115-0.006,0.235-0.026,0.345-0.061C64.581,100.468,64.985,100.408,65.277,100.125z"></path>
	</g>
</svg>