<svg version="1.1" xmlns="http://www.w3.org/2000/svg" xmlns:xlink="http://www.w3.org/1999/xlink" x="0px" y="0px" width="126.532px" height="138.172px" viewBox="0 0 126.532 138.172" enable-background="new 0 0 126.532 138.172" xml:space="preserve">
												<g>
													<path fill="none" d="M34.934,30.656l-0.509-0.132c-5.122-1.33-10.164-3.11-14.987-5.292l-0.355-0.161l-0.242,0.305C11.129,35.072,6.645,47.231,6.213,59.614l-0.018,0.518h23.484l-0.5-0.5l1,0.091c0.139-9.7,1.686-19.311,4.598-28.565L34.934,30.656z"></path>
													<path fill="none" d="M38.437,31.135l-0.446-0.095l-0.136,0.435c-2.843,9.122-4.34,18.593-4.448,28.151l-0.006,0.506h29.714V33.935l-0.49-0.01C54.512,33.767,46.374,32.828,38.437,31.135z"></path>
													<path fill="none" d="M94.495,30.594l0.16,0.508c2.925,9.3,4.472,18.958,4.598,28.703l0.006,0.494h23.977l-0.018-0.518c-0.433-12.382-4.917-24.542-12.627-34.237l-0.239-0.301L110,25.396c-4.827,2.105-9.87,3.811-14.988,5.07L94.495,30.594z"></path>
													<path fill="none" d="M35.554,27.321l0.441,0.107L36.145,27c2.753-7.895,7.424-15.1,13.509-20.835l-0.476-0.846c-10.542,2.908-20.037,8.69-27.458,16.723l-0.485,0.525l0.66,0.275C26.31,24.686,30.905,26.192,35.554,27.321z"></path>
													<path fill="none" d="M39.267,27.635l-0.213,0.554l0.582,0.116c7.544,1.51,15.274,2.324,22.974,2.419l0.506,0.006V3.329L62.552,3.4C53.22,4.595,44.733,13.428,39.267,27.635z"></path>
													<path fill="none" d="M25.334,89.525h-0.01c-2.609,0-4.656,2.088-4.66,4.754c-0.002,1.3,0.487,2.507,1.377,3.398c0.869,0.87,2.035,1.35,3.283,1.35c2.593-0.003,4.632-2.07,4.649-4.705c0.008-1.299-0.485-2.517-1.39-3.429C27.711,90.014,26.557,89.528,25.334,89.525z"></path>
													<path fill="none" d="M29.518,121.94c-0.154-0.973-0.255-1.614-1.233-1.614c-0.164,0-0.37,0.017-0.633,0.04l-0.151,0.013c-0.171,0.014-0.33,0.021-0.478,0.021c-1.136,0-1.437-0.336-1.461-1.636c-0.005-0.266-0.003-0.575,0.055-0.854l0.18-0.881c0.395-1.938,0.791-3.877,1.223-5.807l0.142-0.626c0.429-1.884,0.872-3.832,0.755-5.86c-0.149-2.592-2.007-4.425-4.622-4.56c-0.114-0.006-0.228-0.009-0.34-0.009c-1.738,0-3.249,0.689-4.71,1.355l-0.193,0.088c-1.186,0.54-1.315,0.856-0.868,2.118c0.185,0.521,0.518,0.786,0.99,0.786c0.112,0,0.232-0.015,0.369-0.046c0.286-0.065,0.599-0.099,0.933-0.099c0.099,0,0.197,0.003,0.295,0.008c0.666,0.038,0.904,0.245,0.979,0.854c0.089,0.713,0.083,1.357-0.017,1.913c-0.171,0.952-0.376,1.896-0.582,2.841c-0.176,0.81-0.353,1.62-0.507,2.434c-0.106,0.561-0.223,1.12-0.338,1.68c-0.34,1.643-0.691,3.34-0.805,5.043c-0.107,1.611,0.329,2.988,1.261,3.984c0.873,0.933,2.147,1.447,3.587,1.447c0.375,0,0.766-0.034,1.159-0.102c1.138-0.197,2.231-0.614,3.289-1.019c0.47-0.179,0.94-0.359,1.413-0.519l0.374-0.126l-0.058-0.633C29.53,122.096,29.53,122.017,29.518,121.94z"></path>
													<path fill="none" d="M93.876,96.283l-0.441-0.107l-0.149,0.429c-2.75,7.905-7.421,15.119-13.51,20.861l0.477,0.846c10.544-2.915,20.039-8.707,27.458-16.751l0.484-0.525l-0.66-0.275C103.119,98.917,98.523,97.411,93.876,96.283z"></path>
													<path fill="none" d="M90.165,95.997l0.213-0.554l-0.582-0.116c-7.55-1.51-15.28-2.324-22.974-2.418l-0.506-0.006v27.401l0.563-0.072C76.211,119.037,84.698,110.204,90.165,95.997z"></path>
													<path fill="none" d="M93.407,27.484l0.442-0.107c4.647-1.128,9.243-2.635,13.658-4.478l0.659-0.275l-0.483-0.525c-7.407-8.05-16.892-13.852-27.429-16.78l-0.478,0.845c6.083,5.755,10.745,12.978,13.482,20.89L93.407,27.484z"></path>
													<path fill="none" d="M100.252,64l-1-0.091c-0.139,9.699-1.686,19.31-4.598,28.565l-0.158,0.502l0.509,0.132c5.12,1.329,10.163,3.109,14.987,5.293l0.355,0.161l0.242-0.305c7.71-9.696,12.195-21.855,12.627-34.239l0.018-0.518H99.752L100.252,64z"></path>
													<path fill="none" d="M90.993,92.497l0.446,0.095l0.136-0.435c2.843-9.12,4.34-18.592,4.448-28.151l0.006-0.506H66.315v26.198l0.49,0.01C74.921,89.866,83.059,90.804,90.993,92.497z"></path>
													<path fill="none" d="M96.023,59.793c-0.108-9.56-1.605-19.03-4.448-28.149l-0.135-0.432l-0.444,0.091c-7.94,1.637-16.078,2.519-24.188,2.622l-0.494,0.006v26.368h29.714L96.023,59.793z"></path>
													<path fill="none" d="M89.796,28.277l0.582-0.117l-0.214-0.553C84.681,13.416,76.194,4.593,66.879,3.4l-0.563-0.072v27.402l0.507-0.007C74.523,30.619,82.252,29.796,89.796,28.277z"></path>
													<path fill="#2a2a2a" d="M64.715,0C30.63,0,2.899,27.73,2.899,61.816c0,3.829,0.363,7.696,1.079,11.5h3.367c-0.642-3.166-1.022-6.366-1.132-9.521l-0.019-0.519l23.978,0.059l0.007,0.492c0.042,3.079,0.241,6.269,0.593,9.49h3.227c-0.35-3.164-0.548-6.326-0.591-9.483v-0.5h29.708v26.2l-0.494,0.006c-3.434,0.044-6.968,0.237-10.511,0.576v3.382c3.511-0.344,7.04-0.542,10.498-0.588l0.507-0.007v27.401l-0.563-0.072c-3.618-0.463-7.126-2.077-10.441-4.801v6.903c4.154,0.861,8.393,1.298,12.604,1.298c34.085,0,61.816-27.73,61.816-61.815C126.486,27.776,98.755,0.045,64.715,0z M21.721,22.042C29.142,14.01,38.636,8.227,49.178,5.319l0.476,0.846C43.569,11.9,38.897,19.105,36.145,27l-0.149,0.428l-0.441-0.107c-4.649-1.129-9.244-2.636-13.659-4.479l-0.66-0.275L21.721,22.042z M30.179,59.723l-1-0.091l0.5,0.5H6.195l0.018-0.518c0.432-12.383,4.917-24.542,12.627-34.238l0.242-0.305l0.355,0.161c4.823,2.182,9.866,3.963,14.987,5.292l0.509,0.132l-0.158,0.501C31.865,40.413,30.318,50.023,30.179,59.723z M63.115,60.132H33.401l0.006-0.506c0.108-9.558,1.604-19.029,4.448-28.151l0.136-0.435l0.446,0.095c7.937,1.693,16.075,2.631,24.188,2.79l0.49,0.01V60.132z M63.115,30.73l-0.506-0.006c-7.7-0.096-15.429-0.91-22.974-2.419l-0.582-0.116l0.213-0.554C44.733,13.428,53.22,4.595,62.552,3.4l0.563-0.072V30.73zM110,25.396l0.352-0.153l0.239,0.301c7.71,9.696,12.195,21.855,12.627,34.237l0.018,0.518H99.259l-0.006-0.494c-0.126-9.746-1.673-19.403-4.598-28.703l-0.16-0.508l0.517-0.127C100.13,29.208,105.172,27.501,110,25.396z M80.253,5.319c10.538,2.928,20.022,8.73,27.429,16.78l0.483,0.525l-0.659,0.275c-4.415,1.843-9.01,3.349-13.658,4.478l-0.442,0.107l-0.149-0.43c-2.737-7.912-7.399-15.135-13.482-20.89L80.253,5.319z M66.315,3.329L66.879,3.4c9.315,1.192,17.802,10.015,23.285,24.207l0.214,0.553l-0.582,0.117c-7.544,1.519-15.273,2.342-22.974,2.447l-0.507,0.007V3.329z M66.315,33.931l0.494-0.006c8.109-0.104,16.247-0.985,24.188-2.622l0.444-0.091l0.135,0.432c2.843,9.119,4.34,18.59,4.448,28.149l0.006,0.506H66.315V33.931zM66.315,63.5h29.714l-0.006,0.506c-0.108,9.56-1.605,19.031-4.448,28.151l-0.136,0.435l-0.446-0.095c-7.934-1.692-16.072-2.631-24.188-2.79l-0.49-0.01V63.5z M66.315,120.303V92.902l0.506,0.006c7.694,0.094,15.424,0.908,22.974,2.418l0.582,0.116l-0.213,0.554c-5.466,14.207-13.954,23.04-23.286,24.234L66.315,120.303zM107.711,101.561c-7.419,8.044-16.914,13.837-27.458,16.751l-0.477-0.846c6.089-5.742,10.76-12.956,13.51-20.861l0.149-0.429l0.441,0.107c4.647,1.128,9.243,2.634,13.659,4.477l0.66,0.275L107.711,101.561z M123.218,64.017c-0.433,12.384-4.917,24.543-12.627,34.239l-0.242,0.305l-0.355-0.161c-4.825-2.184-9.867-3.964-14.987-5.293l-0.509-0.132l0.158-0.502c2.912-9.256,4.459-18.867,4.598-28.565l1,0.091l-0.5-0.5h23.483L123.218,64.017z"></path>
													<path fill="#2a2a2a" d="M44.824,77.304H32.601v0h-29c-1.985,0-3.6,1.616-3.6,3.602v53.665c0,1.986,1.615,3.601,3.6,3.601h28.789v0h12.435c1.985,0,3.6-1.615,3.6-3.602V80.905C48.424,78.919,46.809,77.304,44.824,77.304z M29.208,122.933c-0.473,0.16-0.943,0.34-1.413,0.519c-1.058,0.404-2.151,0.822-3.289,1.019c-0.394,0.068-0.784,0.102-1.159,0.102c-1.44,0-2.714-0.514-3.587-1.447c-0.932-0.996-1.368-2.373-1.261-3.984c0.113-1.703,0.465-3.4,0.805-5.043c0.116-0.56,0.232-1.12,0.338-1.68c0.155-0.813,0.331-1.624,0.507-2.434c0.206-0.944,0.411-1.889,0.582-2.841c0.1-0.556,0.106-1.199,0.017-1.913c-0.076-0.609-0.314-0.816-0.979-0.854c-0.098-0.005-0.196-0.008-0.295-0.008c-0.334,0-0.647,0.033-0.933,0.099c-0.136,0.031-0.257,0.046-0.369,0.046c-0.472,0-0.805-0.265-0.99-0.786c-0.447-1.262-0.317-1.578,0.868-2.118l0.193-0.088c1.461-0.666,2.972-1.355,4.71-1.355c0.112,0,0.226,0.003,0.34,0.009c2.615,0.135,4.473,1.968,4.622,4.56c0.117,2.028-0.326,3.976-0.755,5.86l-0.142,0.626c-0.432,1.93-0.828,3.868-1.223,5.807l-0.18,0.881c-0.058,0.279-0.06,0.588-0.055,0.854c0.024,1.3,0.325,1.636,1.461,1.636c0.148,0,0.307-0.007,0.478-0.021l0.151-0.013c0.264-0.022,0.47-0.04,0.633-0.04c0.978,0,1.079,0.641,1.233,1.614c0.012,0.077,0.012,0.156,0.005,0.233l0.058,0.633L29.208,122.933z M25.324,99.027c-1.248,0-2.414-0.479-3.283-1.35c-0.89-0.892-1.379-2.099-1.377-3.398c0.004-2.666,2.051-4.754,4.66-4.754h0.01c1.223,0.002,2.377,0.488,3.25,1.368c0.904,0.912,1.398,2.13,1.39,3.429C29.957,96.958,27.917,99.024,25.324,99.027z"></path>
												</g>
											</svg>