<svg version="1.1" xmlns="http://www.w3.org/2000/svg" xmlns:xlink="http://www.w3.org/1999/xlink" x="0px" y="0px" width="396.636px" height="396.738px" viewBox="0 0 396.636 396.738" enable-background="new 0 0 396.636 396.738" xml:space="preserve">
	<g>
		<path fill-rule="evenodd" clip-rule="evenodd" fill="#2a2a2a" d="M387.025,396.738c-61.998-0.074-125.489-0.111-188.708-0.111c-63.22,0-126.709,0.037-188.706,0.111c-5.014,0-7.729-1.031-9.371-3.562L0,392.804v-18.595l0.031-0.149c0.305-1.484,0.578-2.957,0.843-4.388c0.665-3.58,1.29-6.947,2.301-10.058c4.998-15.365,14.583-27.496,28.489-36.056c0.667-0.41,1.329-0.861,2.124-1.408c0.372-0.256,0.703-0.483,1.066-0.729l6.055-4.082l-4.757-5.542c-9.873-11.5-13.263-23.744-10.364-37.432c2.158-10.191,7.399-18.252,16.024-24.644c7.127-5.281,15.581-8.073,24.447-8.073c11.154,0,21.642,4.381,29.53,12.337c13.461,13.576,18.141,37.653,1.042,57.405l-4.364,5.04l31.705,26.076l3.571-7.52c7.511-15.813,19.165-28.097,34.639-36.511l7.941-4.318l-6.622-6.154c-14.11-13.111-20.191-28.146-18.591-45.966c1.292-14.374,7.769-26.547,19.251-36.181c9.326-7.823,21.323-12.131,33.781-12.131c14.623,0,28.705,5.929,38.637,16.266c9.926,10.333,15.352,24.487,14.883,38.833c-0.479,14.695-7.088,28.584-18.608,39.109l-6.686,6.107l7.926,4.38c15.586,8.614,27.208,20.921,34.542,36.581l3.556,7.593l31.751-26.199l-4.322-5.028c-8.742-10.173-12.199-21.171-10.568-33.623c1.412-10.773,6.224-19.475,14.713-26.601c7.289-6.118,16.584-9.487,26.174-9.487c10.561,0,20.676,3.968,28.481,11.172c14.15,13.062,19.673,38.147,2.041,58.912l-4.559,5.369l5.716,4.115c1.142,0.82,2.296,1.626,3.45,2.429c2.409,1.677,4.684,3.261,6.811,4.988c14.042,11.401,21.891,25.59,23.993,43.377c0.11,0.928,0.334,1.738,0.494,2.268l0.064,0.211v18.305l-0.241,0.372c-1.64,2.53-4.343,3.562-9.33,3.562H387.025z M198.021,300.294c-12.461,0-24.713,3.913-36.417,11.631c-22.243,14.666-32.161,37.41-29.479,67.6l0.526,5.925H263.79l0.657-5.765c3.383-29.689-8.376-55.539-31.456-69.148C221.465,303.74,209.699,300.294,198.021,300.294z M329.495,324.699c-15.024,0.223-28.865,6.342-38.972,17.23c-9.736,10.49-15.088,24.471-14.317,37.396l0.364,6.112h108.553l0.224-6.269c0.482-13.526-5.028-27.279-15.116-37.734c-10.42-10.797-24.57-16.743-39.842-16.743C330.091,324.692,329.795,324.694,329.495,324.699z M65.808,324.64c-14.733,0.137-29.117,6.315-39.535,17.001c-10.085,10.343-15.449,23.619-15.102,37.383l0.16,6.336h109.149l0.161-6.336c0.351-13.876-5.026-27.239-15.14-37.629c-10.228-10.509-24.28-16.599-38.623-16.754l-0.071-1.526l-1,0.023V324.64zM329.818,252.655c-16.452,0.269-29.846,13.754-29.962,30.292c-0.12,16.695,13.41,30.445,30.16,30.652l0.379,0.002c8.04,0,15.657-3.203,21.453-9.018c5.804-5.824,8.984-13.477,8.956-21.548c-0.06-16.561-13.447-30.089-29.944-30.379l-0.042-1.519l-1,0.014V252.655z M66.244,252.649c-8.038,0.001-15.656,3.202-21.45,9.012c-5.803,5.821-8.986,13.471-8.962,21.539c0.05,16.72,13.694,30.357,30.414,30.399c16.708,0.001,30.406-13.582,30.535-30.279c0.129-16.694-13.394-30.452-30.146-30.668L66.244,252.649z M198.082,204.645c-23.379,0.208-42.327,19.308-42.241,42.575c0.087,23.33,19.126,42.342,42.44,42.38c11.194,0,22.209-4.658,30.222-12.781c8.078-8.187,12.443-18.862,12.291-30.058c-0.315-23.224-19.308-42.118-42.338-42.118h-0.002L198.082,204.645z"></path>
		<path fill-rule="evenodd" clip-rule="evenodd" fill="#2a2a2a" d="M198.317,156.662c-1.858,0-4.07-1.769-6.069-4.852l-3.097-4.776c-7.244-11.17-14.735-22.721-21.969-34.148c-2.534-4-6.021-5.945-10.66-5.945c-0.146,0-0.292,0.002-0.443,0.005c-1.783,0.044-3.663,0.064-6.095,0.064c-0.296,0-6.935-0.019-7.242-0.019c-2.281,0-5.29,0.014-8.336,0.126c-3.62,0.134-7.387,1.761-9.832,4.247c-8.65,8.793-17.36,17.797-25.783,26.505c-5.086,5.259-10.142,10.485-15.212,15.697c-1.888,1.94-3.997,3.052-5.787,3.052c-0.501,0-2.025,0-3.438-2.062c-0.81-1.181-1.371-3.323-1.43-5.459c-0.215-7.723-0.178-15.625-0.143-23.268c0.014-3.002,0.027-5.976,0.027-8.95v-9.676l-5.019-1.175c-10.959-2.565-19.557-7.104-26.287-13.876c-15.8-15.898-20.516-34.298-14.016-54.687C33.991,17.07,48.438,4.684,70.426,0.655c0.861-0.158,1.594-0.375,2.257-0.585L72.905,0h250.858l0.208,0.062c1.784,0.528,3.578,1.013,5.312,1.482c4.44,1.199,8.634,2.332,12.369,4.071c19.664,9.161,32.015,30.593,30.035,52.119c-2.09,22.726-17.424,41.272-39.064,47.249c-0.698,0.193-2.332,0.657-2.332,0.657l-6.465,1.827l0.003,18.614c0.004,7.754,0.009,15.469-0.012,23.183c-0.013,4.982-1.92,6.28-3.354,6.822c-0.811,0.306-1.56,0.461-2.227,0.461c-1.007,0-2.641-0.305-5.18-2.938l-1.642-1.703c-12.833-13.31-26.104-27.074-39.352-40.541c-2.447-2.486-6.214-4.114-9.83-4.248c-3.049-0.112-6.058-0.126-8.339-0.126c-0.307,0-6.946,0.019-7.242,0.019c-2.432,0-4.312-0.02-6.094-0.064c-0.151-0.003-0.299-0.005-0.444-0.005c-4.641,0-8.127,1.945-10.66,5.946c-7.287,11.51-14.816,23.118-22.097,34.344l-2.969,4.579C202.389,154.893,200.176,156.662,198.317,156.662z M164.371,95.95c3.662,0,5.752,1.166,7.71,4.301c4.601,7.362,9.354,14.669,13.952,21.736l0.338,0.519c1.458,2.242,2.917,4.484,4.37,6.729c0.575,0.887,1.178,1.652,1.762,2.393c0.278,0.353,0.533,0.677,0.805,1.035l5.612,7.386l5.026-7.794c1.756-2.723,5.765-8.922,5.765-8.922l0.417-0.645c5.042-7.793,9.803-15.155,14.606-22.718c1.831-2.883,3.853-4.006,7.209-4.006l0.191,0.001c5.464,0.074,11.946,0.15,18.565,0.15c6.005,0,11.396-0.063,16.483-0.19l0.383-0.005c3.575,0,6.201,1.208,9.36,4.307c5.991,5.876,12.148,11.41,18.103,16.761c2.369,2.13,4.686,4.212,6.928,6.258l10.882,9.934v-14.734c0-1.232-0.007-2.608-0.015-4.088c-0.02-3.753-0.042-8.007,0.037-12.318c0.068-3.708,1.925-5.682,5.677-6.035c2.229-0.209,4.411-0.421,6.606-0.713c12.823-1.709,24.287-10.003,30.664-22.188c6.389-12.208,6.668-26.387,0.747-37.93c-8.11-15.811-22.098-24.168-40.451-24.17C294.143,11,89.749,11,89.749,11c-1.118,0-2.236-0.007-3.354-0.015c-1.15-0.007-2.297-0.015-3.444-0.015c-1.526,0-3.053,0.013-4.578,0.055c-12.756,0.354-24.66,5.952-32.659,15.357c-7.66,9.007-11.016,20.384-9.45,32.034c2.864,21.309,18.303,35.678,40.292,37.498c5.95,0.493,7.237,1.914,7.249,7.998c0.007,3.725,0.005,7.45,0.004,10.557l-0.001,18.726l10.888-9.966c2.212-2.025,4.493-4.089,6.813-6.19l0.154-0.14c6.101-5.523,12.395-11.221,18.571-17.179c3.25-3.135,5.63-3.777,8.204-3.777l0.231,0.002c5.839,0.105,11.812,0.158,17.747,0.158c5.797,0,11.747-0.051,17.684-0.15l0.265-0.003H164.371z"></path>
		<path fill-rule="evenodd" clip-rule="evenodd" fill="#2a2a2a" d="M103.957,59.029c-4.485,0-5.627-1.478-6.486-3.124c-0.841-1.61-0.828-3.429,0.034-4.992c0.428-0.778,1.725-2.611,4.505-2.837c0.94-0.077,2-0.113,3.335-0.113c0.69,0,1.381,0.009,2.072,0.019l0.286,0.004c0.857,0.012,1.701,0.024,2.544,0.024L250.778,48c14.093,0,28.185,0.005,42.278,0.025c2.572,0.004,4.787,0.967,5.925,2.576c0.637,0.901,1.235,2.43,0.47,4.603c-0.811,2.305-2.175,3.362-4.867,3.77c-0.106,0.012-0.284,0.031-0.805,0.031l-1.027-0.005l-68.83,0c-39.985,0-79.97,0.003-119.956,0.029H103.957z"></path>
	</g>
</svg>